<svg xmlns="http://www.w3.org/2000/svg" viewBox="0 0 512.003 512.003" width="512" height="512">
  <path d="M504.095 389.589L370.506 256l133.589-133.591a26.983 26.983 0 000-38.168L427.757 7.905c-10.538-10.538-27.628-10.538-38.168 0L256.002 141.494 122.41 7.905c-10.538-10.538-27.628-10.538-38.168 0L7.907 84.241c-10.54 10.54-10.54 27.628 0 38.168l133.589 133.593L7.907 389.589c-10.54 10.54-10.54 27.628 0 38.168l76.338 76.338a26.985 26.985 0 0038.168 0l133.589-133.591 133.589 133.591a26.99 26.99 0 0038.168 0l76.338-76.338c10.54-10.538 10.54-27.626-.002-38.168z" data-original="#9BC9FF" class="active-path" data-old_color="#9BC9FF" fill="#df3813"/>
  <path d="M7.907 427.759l76.338 76.338a26.983 26.983 0 0038.166 0L256 370.506V141.494L122.41 7.905c-10.538-10.54-27.628-10.54-38.168 0L7.907 84.241c-10.54 10.54-10.54 27.628 0 38.168l133.589 133.593L7.907 389.589c-10.542 10.542-10.542 27.63 0 38.17z" data-original="#57A4FF" data-old_color="#57A4FF" fill="#d51911"/>
</svg>
