<svg xmlns="http://www.w3.org/2000/svg" viewBox="0 0 512.003 512.003">
  <path d="M360.773 20.807c-38.114 0-75.772 14.353-104.769 39.229l-.005-.003c-29.001-24.878-66.657-39.225-104.772-39.225C66.429 20.807 0 87.235 0 172.036c0 102.508 71.37 165.162 179.402 260.002 9.234 8.107 18.763 16.471 28.57 25.143.067.061.135.119.203.178l32.617 28.174a23.229 23.229 0 0015.21 5.663h.008a23.238 23.238 0 0015.219-5.664l32.611-28.174.203-.177c64.566-57.104 112.978-100.819 148-143.452 40.907-49.796 59.961-94.82 59.961-141.692-.004-84.802-66.431-151.23-151.231-151.23z" fill="#d7143a"/>
  <path d="M151.228 20.807C66.429 20.807 0 87.235 0 172.036c0 102.508 71.37 165.162 179.402 260.002 9.234 8.107 18.763 16.471 28.57 25.143.067.061.135.119.203.178l32.617 28.174a23.223 23.223 0 0015.21 5.663V60.033c-29.003-24.878-66.659-39.226-104.774-39.226z" fill="#b4002b"/>
</svg>
