<svg xmlns="http://www.w3.org/2000/svg" viewBox="0 0 512 512">
  <path d="M510.859 196.558a23.274 23.274 0 00-18.791-15.842l-148.695-21.604-66.5-134.753a23.275 23.275 0 00-41.746 0L168.631 159.11l-148.7 21.604a23.276 23.276 0 00-12.9 39.704L114.63 325.291 89.22 473.405a23.279 23.279 0 0033.774 24.538L256 428.021l133.007 69.922a23.24 23.24 0 0010.828 2.674h.099c12.827-.036 23.21-10.444 23.21-23.277 0-1.788-.202-3.529-.582-5.202l-25.193-146.846L504.97 220.42a23.276 23.276 0 005.889-23.862z" fill="#f2d23d"/>
  <path d="M235.127 24.361l-66.496 134.751-148.7 21.604a23.276 23.276 0 00-12.9 39.704L114.63 325.293 89.22 473.405a23.278 23.278 0 0033.774 24.538L256 428.021V11.385a23.272 23.272 0 00-20.873 12.976z" fill="#eebf00"/>
</svg>
